# xmcd
#
# Track frame offsets:
#	150
#	23242
#	43885
#	67504
#	86751
#	103819
#	123277
#	143897
#	159035
#	170359
#	190419
#	210825
#
# Disc length: 3036 seconds
#
# Revision: 4
# Processed by: cddbd v1.5.2PL0 Copyright (c) Steve Scherf et al.
# Submitted via: EasyCDDAExtractor 10.0.3.1
#
DISCID=960bda0c
DTITLE=Canned Heat - Canned Heat Blues Band
DYEAR=1998
DGENRE=Blues
TTITLE0=Stranger
TTITLE1=Quiet woman
TTITLE2=Iron horse
TTITLE3=Jr.'s shuffle
TTITLE4=Creole queen
TTITLE5=Keep it to yourself
TTITLE6=Boogie music
TTITLE7=Goin' up the country
TTITLE8=See these tears
TTITLE9=One kind favour
TTITLE10=Oh baby
TTITLE11=Gorgo boogie
EXTD=
EXTT0=Elmore James\nB. Robinson\n
EXTT1=Robert Lucas\n
EXTT2=Robert Lucas\n
EXTT3=Junior Watson\nde la Parra\n
EXTT4=Robert Lucas\n
EXTT5=Sonny Boy Willianson\n
EXTT6=L. T. Tatman\nCanned Heat\n
EXTT7=Alan Wilson\n
EXTT8=Robert Lucas\n
EXTT9=L. T. Tatman\nCanned Heat\n
EXTT10=Lucas\nde la Parra\n
EXTT11=Lucas\nde la Parra\n
PLAYORDER=
